<?xml version="1.0" encoding="utf-8"?>
<!-- Generator: Adobe Illustrator 22.0.1, SVG Export Plug-In . SVG Version: 6.00 Build 0)  -->
<svg version="1.1" id="Layer_1" xmlns="http://www.w3.org/2000/svg" xmlns:xlink="http://www.w3.org/1999/xlink" x="0px" y="0px"
	 viewBox="0 0 167.1 167.1" style="enable-background:new 0 0 167.1 167.1;" xml:space="preserve">
<style type="text/css">
	.st0{fill:#007355;stroke:#000000;stroke-width:0.5759;stroke-linecap:round;stroke-linejoin:round;}
	.st1{fill:none;stroke:#000000;stroke-width:0.5759;stroke-linecap:round;stroke-linejoin:round;}
	.st2{fill:#ED1C24;stroke:#000000;stroke-width:0.5759;stroke-linecap:round;stroke-linejoin:round;}
	.st3{fill:#FFFFFF;stroke:#000000;stroke-width:0.5759;stroke-linecap:round;stroke-linejoin:round;}
	.st4{fill:#FFFFFF;}
</style>
<path class="st0" d="M134.8,133.5l-4.1,21.2c0,0,9.3,1,14.3,2.7c6,2.1,13.6,5.6,13.6,5.6l-4.9-15.6l9.4-6.6c0,0-6.8-2.8-16.2-5.2
	C140,133.9,134.8,133.5,134.8,133.5z"/>
<path class="st0" d="M31.5,133.9l4.1,21.2c0,0-9.3,1-14.3,2.7c-6,2.1-13.6,5.6-13.6,5.6l4.9-15.6l-9.4-6.6c0,0,6.8-2.8,16.2-5.2
	C26.3,134.3,31.5,133.9,31.5,133.9z"/>
<g>
	<path class="st0" d="M58.9,12.9c-0.3,0.3-0.9,0.5-1.4,0.5l-8.1-1.4c-0.5-0.1-0.6-0.4-0.3-0.8l7.7-10.2c0.3-0.4,0.9-0.6,1.3-0.6
		l11.5,0.3c0.5,0,0.6,0.3,0.3,0.6L58.9,12.9z"/>
	<path class="st0" d="M49.2,20c-0.2,0.4-0.7,0.7-1.1,0.7L37,19.4c-0.5,0-0.7-0.4-0.4-0.8l7.1-11.8c0.2-0.4,0.8-0.7,1.3-0.8l9.2-0.9
		c0.5,0,0.7,0.3,0.6,0.7L49.2,20z"/>
	<path class="st0" d="M38.3,30.4c-0.2,0.4-0.6,0.7-1.1,0.6l-10.4-1.5c-0.5-0.1-0.7-0.4-0.5-0.9L32,15.6c0.2-0.4,0.7-0.7,1.2-0.8
		l10-0.3c0.5,0,0.7,0.3,0.6,0.7L38.3,30.4z"/>
	<path class="st0" d="M28.7,41.5c-0.1,0.4-0.5,0.8-1,0.8l-8.5,0.3c-0.5,0-0.8-0.3-0.8-0.8l0.7-15.4c0-0.4,0.4-0.8,0.9-0.8l10.7-0.3
		c0.5,0,0.8,0.3,0.7,0.8L28.7,41.5z"/>
	<path class="st0" d="M22.6,53.7c0,0.4-0.4,0.8-0.8,0.8l-10.3-0.4c-0.5,0-0.8-0.4-0.8-0.8L11,38.6c0-0.4,0.4-0.8,0.9-0.8l9.9,0.4
		c0.5,0,0.8,0.4,0.8,0.8V53.7z"/>
	<path class="st0" d="M18.4,68.6c0.1,0.4-0.2,0.9-0.6,1L7.3,71.9c-0.4,0.1-0.9-0.2-1-0.6L3.1,56.7c-0.1-0.4,0.2-0.9,0.6-1.1l9.5-3.6
		c0.4-0.2,0.9,0,1,0.5L18.4,68.6z"/>
	<path class="st0" d="M21.1,81.6c0.3,0.4,0.1,0.8-0.3,1l-10,4.8c-0.4,0.2-1,0.1-1.2-0.3L0.4,75.1c-0.3-0.4-0.2-0.9,0.2-1.2l8.8-7.3
		c0.4-0.3,0.8-0.2,1.1,0.1L21.1,81.6z"/>
	<path class="st0" d="M27.5,98.4c0.3,0.3,0.3,0.8,0,1.2l-8.5,9.4c-0.3,0.3-0.8,0.4-1.1,0L2.6,94.4c-0.3-0.3-0.3-0.8,0-1.2l8.9-9.5
		c0.3-0.3,0.8-0.3,1.1,0L27.5,98.4z"/>
	<path class="st0" d="M39.9,111.5c0.4,0.2,0.5,0.7,0.2,1.1l-8.5,10.8c-0.3,0.3-0.8,0.5-1.2,0.2l-19.1-10.3c-0.4-0.2-0.5-0.7-0.3-1
		l9.1-12.1c0.3-0.4,0.8-0.4,1.2-0.2L39.9,111.5z"/>
	<path class="st0" d="M52.4,124.1c0.4,0.2,0.6,0.6,0.4,1l-6.2,10.6c-0.2,0.4-0.8,0.6-1.2,0.5l-23-6.9c-0.4-0.1-0.6-0.5-0.4-0.9
		l8.2-12.5c0.2-0.4,0.8-0.5,1.2-0.4L52.4,124.1z"/>
</g>
<g>
	<path class="st0" d="M107.7,12.9c0.3,0.3,0.9,0.5,1.4,0.5l8.1-1.4c0.5-0.1,0.6-0.4,0.3-0.8l-7.7-10.2c-0.3-0.4-0.9-0.6-1.3-0.6
		L97.1,0.6c-0.5,0-0.6,0.3-0.3,0.6L107.7,12.9z"/>
	<path class="st0" d="M117.4,20c0.2,0.4,0.7,0.7,1.1,0.7l11.1-1.2c0.5,0,0.7-0.4,0.4-0.8L123,6.9c-0.2-0.4-0.8-0.7-1.3-0.8l-9.2-0.9
		c-0.5,0-0.7,0.3-0.6,0.7L117.4,20z"/>
	<path class="st0" d="M128.4,30.4c0.2,0.4,0.6,0.7,1.1,0.6l10.4-1.5c0.5-0.1,0.7-0.4,0.5-0.9l-5.8-13.1c-0.2-0.4-0.7-0.7-1.2-0.8
		l-10-0.3c-0.5,0-0.7,0.3-0.6,0.7L128.4,30.4z"/>
	<path class="st0" d="M137.9,41.5c0.1,0.4,0.5,0.8,1,0.8l8.5,0.3c0.5,0,0.8-0.3,0.8-0.8l-0.7-15.4c0-0.4-0.4-0.8-0.9-0.8l-10.7-0.3
		c-0.5,0-0.8,0.3-0.7,0.8L137.9,41.5z"/>
	<path class="st0" d="M144.1,53.7c0,0.4,0.4,0.8,0.8,0.8l10.3-0.4c0.5,0,0.8-0.4,0.8-0.8l-0.5-14.6c0-0.4-0.4-0.8-0.9-0.8l-9.9,0.4
		c-0.5,0-0.8,0.4-0.8,0.8V53.7z"/>
	<path class="st0" d="M148.3,68.6c-0.1,0.4,0.2,0.9,0.6,1l10.4,2.4c0.4,0.1,0.9-0.2,1-0.6l3.2-14.7c0.1-0.4-0.2-0.9-0.6-1.1
		l-9.5-3.6c-0.4-0.2-0.9,0-1,0.5L148.3,68.6z"/>
	<path class="st0" d="M145.6,81.6c-0.3,0.4-0.1,0.8,0.3,1l10,4.8c0.4,0.2,1,0.1,1.2-0.3l9.1-12.1c0.3-0.4,0.2-0.9-0.2-1.2l-8.8-7.3
		c-0.4-0.3-0.8-0.2-1.1,0.1L145.6,81.6z"/>
	<path class="st0" d="M139.2,98.4c-0.3,0.3-0.3,0.8,0,1.2l8.5,9.4c0.3,0.3,0.8,0.4,1.1,0l15.4-14.6c0.3-0.3,0.3-0.8,0-1.2l-8.9-9.5
		c-0.3-0.3-0.8-0.3-1.1,0L139.2,98.4z"/>
	<path class="st0" d="M126.7,111.5c-0.4,0.2-0.5,0.7-0.2,1.1l8.5,10.8c0.3,0.3,0.8,0.5,1.2,0.2l19.1-10.3c0.4-0.2,0.5-0.7,0.3-1
		l-9.1-12.1c-0.3-0.4-0.8-0.4-1.2-0.2L126.7,111.5z"/>
	<path class="st0" d="M114.2,124.1c-0.4,0.2-0.6,0.6-0.4,1l6.2,10.6c0.2,0.4,0.8,0.6,1.2,0.5l23-6.9c0.4-0.1,0.6-0.5,0.4-0.9
		l-8.2-12.5c-0.2-0.4-0.8-0.5-1.2-0.4L114.2,124.1z"/>
</g>
<path class="st0" d="M30.4,140.8l3.8,26c0,0,23.7-4.2,45.2-3.8c21.5,0.3,53.1,3.5,53.1,3.5l5.3-25c0,0-24.1-6.9-57.3-6.9
	C47.4,134.6,30.4,140.8,30.4,140.8z"/>
<path class="st1" d="M69.5,29.2"/>
<polygon class="st2" points="38.6,44.5 95.8,54.9 95.6,109 37.8,99.3 "/>
<polygon class="st2" points="128.2,40.1 129.2,95.4 95.6,109 95.8,54.9 "/>
<polygon class="st2" points="70.5,29.9 38.6,44.5 95.8,54.9 128.2,40.1 "/>
<polyline class="st1" points="78.3,34.3 71.7,33.5 50.4,42.8 94.6,51.9 117.1,41.7 95.1,37.3 "/>
<polyline class="st1" points="63.4,41.2 94.1,47.7 103.6,42.6 "/>
<polygon class="st3" points="79.8,40.5 74.5,39.1 85.3,25.5 100.1,29.2 97.1,32.9 91.3,43.1 "/>
<polygon class="st3" points="87.3,29 79,40.3 91.6,43.6 99.3,32.2 "/>
<g>
	<path class="st4" d="M69.9,65.9c-1.7-1.7-3.7-2.9-5.8-3.4c-1.3-0.3-2.3-0.3-3.1,0.1l-0.7,0.4c-0.3,0.2-0.6,0.6-1,1
		c-0.5,0.6-0.7,1-0.6,1.2l0.6,1.3l1.7,0.4l2.7,3.4l-3.5-0.9l1.2,18.8l-2.8-3.3l-1.1-16.2l-2.2-0.6l-2.7-3.4l4.4,1.1
		c-0.8-1-1.3-1.8-1.3-2.3c-0.1-0.8,0-1.3,0.3-1.7c0.6-0.9,1.1-1.6,1.6-1.9c0.5-0.4,1.3-0.7,2.3-0.9c0.7-0.2,1.5-0.2,2.4,0.1
		c2.3,0.6,4.8,2,7.4,4.4c0.8,0.7,1.9,1.9,3.4,3.7l1,2.9L69.9,65.9z"/>
	<path class="st4" d="M68.8,77.7c0.6,0.9,0.9,1.7,0.9,2.4c0.1,1.9-0.7,2.6-2.6,2.1c-2.4-0.6-3.7-2.2-3.9-4.7c-0.1-1.3,0.3-2.3,1.1-3
		c0.8-0.7,1.9-0.8,3.1-0.5c2,0.5,4,2.4,6,5.8l0.1,0.1l-0.5-7.4l-11.4-2.9l-2.7-3.4l17.5,4.4l2.8,3.4l-3.6-0.9l1.3,19.6l-1.7-2.5
		c0-0.2,0-0.4,0-0.6c-0.1-2-1-4.7-2.5-8c-0.3-0.7-0.9-1.5-1.7-2.4C70.2,78.6,69.5,78,68.8,77.7z"/>
</g>
<g>
	<path class="st4" d="M118.8,72.2c-0.2-1-0.6-1.8-1.3-2.3c-0.7-0.5-1.5-0.6-2.3-0.2l-0.4,17.1l-1.2-1.2c-0.3-1.3-0.5-2-0.6-2.2
		c-0.2-0.4-0.5-1-1-1.7c-1.4-1.8-3.1-2.5-5.3-2l-2.3-3.2c2.7-4,5.6-7.2,8.6-9.6l0-0.7l-8.8,3.3l-2.2-2.2l18.4-6.9l2.1,2.3l-7.3,2.7
		l0,0.5c1-0.4,2.1-0.1,3.3,0.9c1.5,1.2,2.2,3.2,2.1,5.9c0,1.2-0.3,2.3-0.8,3.2c-0.5,1.1-1.2,1.8-2.1,2.1c-0.6,0.2-1.1,0.1-1.6-0.3
		c-0.4-0.4-0.7-1-0.6-1.9c0-0.9,0.4-1.9,1.1-2.9c0.4-0.3,0.8-0.6,1-0.7C118.1,72.1,118.4,72,118.8,72.2z M112.9,70.8
		c-1.2,1.1-2.1,2.1-2.9,3c-0.2,0.2-0.6,0.8-1.4,1.8c1.8,0.5,3.1,1.6,4.1,3.3L112.9,70.8z"/>
</g>
<g>
	<path class="st4" d="M58.7,143.8c-0.3,0-0.6,0.1-0.9,0.1c-0.1-0.1-0.3-0.2-0.3-0.3c-0.2-0.3-0.4-0.8-0.5-1.3
		c-0.4-0.2-0.9-0.5-1.3-0.7c0.2,1.3,0.4,2.4,0.6,3.2c0,0.1,0.1,0.3,0.1,0.4c-0.7-0.7-1.7-0.9-3.1-0.8c-0.1,0-0.3,0-0.5,0.1
		c0,0,0,0-0.1,0c-4.6,0.8-9.1,1.6-13.6,2.5c0.8,0.5,1.6,0.9,2.4,1.4c2.9-0.5,5.7-1.1,8.6-1.6c0,0.1,0,0.2,0.1,0.3
		c-2.6,1.3-5.1,3.1-7.4,5.3c0.8,0.7,1.7,1.4,2.5,2.2c3.2-0.4,5.8,0.8,7.7,3.5c0.6,0.5,1.1,1,1.7,1.5c-0.8-4.4-1.7-8.8-2.5-13.2
		c0.5-0.1,0.9-0.2,1.4-0.2c0,0,0,0,0,0c0.2,0,0.4,0,0.5-0.1c0.5-0.1,1,0,1.4,0.3c0.5,0.2,0.8,0.6,0.9,1c0.1,0.1,0.1,0.3,0.2,0.6
		c0.4,3.1,0.9,6.1,1.3,9.2c0.7,0.6,1.5,1.1,2.2,1.7c-0.6-4.4-1.2-8.9-1.8-13.3c0.9-0.1,1.9-0.2,2.8-0.3
		C60.3,144.8,59.5,144.3,58.7,143.8z M46.8,152.4c1.3-1.1,2.6-2,3.8-2.7c0.3,1.7,0.7,3.3,1,5C50.2,153.6,48.6,152.8,46.8,152.4z"/>
	<path class="st4" d="M64.8,150.2c0.5,0,0.8-0.1,1.1-0.2c0.3-0.1,0.7-0.5,1.1-0.9c0.6-0.7,0.8-1.4,0.8-2.2c-0.1-0.8-0.5-1.6-1.2-2.2
		c-0.7-0.6-1.5-0.9-2.5-0.8c-0.9,0.1-1.6,0.5-2.3,1.2c-0.6,0.7-0.9,1.5-0.8,2.3c0.1,0.8,0.5,1.5,1.3,2.1
		C63.1,150,63.9,150.3,64.8,150.2z M63.6,146.5c0.6-0.6,1.2-0.9,1.6-0.8c0.3,0,0.4,0.3,0.5,0.7c0,0.3,0,0.6,0,0.7
		c-0.1,0.3-0.4,0.5-0.8,0.9c-0.4,0.3-0.8,0.5-1.1,0.5c-0.3,0-0.5-0.2-0.5-0.6C63.2,147.3,63.3,146.9,63.6,146.5z"/>
	<path class="st4" d="M66.1,152.6c-1.4-1-2.7-1.9-3.9-2.6c0.1,1.2,0.2,2.4,0.4,3.6c3.1,1.6,5.2,2.8,6.3,3.6c0.8,0.6,1.6,1.2,2.4,1.8
		c-0.1-0.6-0.1-1.2-0.2-1.9C68.6,154.6,66.9,153.2,66.1,152.6z"/>
	<path class="st4" d="M124.7,147.3c-0.6-0.2-0.9-0.4-0.9-0.6c0,0,0,0,0.1-0.2c0.1-0.3,0-0.5-0.1-0.8c-0.2-0.4-0.6-0.9-1.1-1.5
		c-0.2,1-0.4,2-0.6,3c-0.1,0.8-0.2,1.7-0.3,2.5c0-0.1,0-0.2-0.1-0.3c-0.9-2-1.6-3.1-2.3-3.3c-0.1,0-0.4,0-0.7,0
		c-1.2,0.1-2.2,0.4-2.9,1.2c-0.4-0.7-0.7-1.2-0.9-1.5c-0.5-0.5-1.1-0.8-1.8-0.9c-1.2-0.2-2.4-0.5-3.6-0.7c0,0.1,0.1,0.1,0.1,0.2
		c-4.6-0.6-9.3-1.1-14-1.5c0,0,0.1,0.1,0.1,0.1c-2.7-0.2-5.5-0.3-8.2-0.4c-0.1-0.1-0.2-0.2-0.3-0.3c-0.2-0.4-0.3-0.8-0.3-1.4
		c-0.4-0.3-0.8-0.6-1.2-0.9c0,1.3,0,2.4,0.1,3.3c0,0.1,0,0.3,0,0.4c-0.6-0.8-1.6-1.2-2.9-1.2c0,0-0.1,0-0.2,0c0,0-0.1-0.1-0.1-0.1
		c-5.2,0.1-10.3,0.2-15.5,0.5c0.8,0.6,1.5,1.2,2.2,1.7c3.5-0.1,7-0.3,10.5-0.3c0,0.6,0,1.2,0,1.9c0,0-0.1-0.1-0.1-0.1
		c-0.1-0.2-0.3-0.4-0.5-0.5c-0.4-0.3-0.9-0.5-1.5-0.5c-0.6,0-1.3,0.4-1.8,1.2c0,0-0.1-0.1-0.1-0.1c-0.9-0.7-1.8-1.1-2.8-1
		c-1,0.1-1.8,0.5-2.4,1.4c-0.5,0.7-0.8,1.6-0.7,2.5c0,1.1,0.5,2,1.3,2.6c0.8,0.7,1.8,1,3,0.9c1.2,0,1.9-0.5,2.3-1.4
		c0.1-0.3,0-0.8-0.3-1.5c-0.4-0.8-1-1.2-1.8-1.2c-0.5,0-0.9,0.2-1.3,0.5c-0.4,0.3-0.5,0.7-0.5,1.2c0,0.2,0,0.3,0.1,0.5
		c-0.5-0.2-0.8-0.6-0.8-1.2c0-0.5,0.2-1,0.6-1.4c0.4-0.4,0.9-0.6,1.5-0.6c0.7,0,1.3,0.2,1.7,0.5c0.1,0.1,0.4,0.4,0.7,0.9
		c0.2,0.2,0.2,0.6,0,1c0.5-0.2,1-0.4,1.5-0.6c-0.2-0.8-0.2-1.3,0-1.6c0.1-0.2,0.3-0.4,0.6-0.4c0.3,0,0.6,0.1,1,0.4
		c0.3,0.3,0.5,0.6,0.5,0.8c0.1,2.3,0.1,4.6,0.2,7c0.7,0.6,1.4,1.2,2,1.8c-0.1-4.4-0.2-8.7-0.2-13.1c0.3,0,0.6,0,0.8,0
		c0,0,0.1,0.1,0.1,0.1c0.2,0,0.4,0,0.5,0c0.5,0,0.9,0.2,1.4,0.4c0.4,0.3,0.7,0.7,0.8,1.1c0,0.1,0.1,0.3,0.1,0.7
		c-0.1,3.1-0.1,6.2-0.2,9.3c0.7,0.7,1.3,1.3,2,2c0.1-4.5,0.2-8.9,0.3-13.4c0.8,0,1.6,0,2.5,0.1c0.8,0,1.6,0.1,2.3,0.1
		c-1.7,1.7-2.6,3.6-2.7,5.6c-0.1,1.6,0.2,3,0.9,4.2c0.8,1.5,2,2.3,3.6,2.4c0.8,0,1.4-0.1,2-0.5c0.6-0.4,0.9-0.9,0.9-1.6
		c0-0.7-0.2-1.3-0.9-1.7c-0.2-0.2-0.6-0.4-1-0.4c-0.3,0-0.6,0.1-0.9,0.2c-0.7,0.3-1.1,0.8-1.2,1.4c0,0.3,0.1,0.7,0.3,0.9
		c-1.3-0.9-1.9-2-1.8-3.4c0-0.4,0.1-1.1,0.3-2c0.6-2.7,2.6-4.4,6-4.9c0.3,0,0.5,0.1,0.8,0.1c-0.3,2.3-0.5,4.5-0.8,6.8
		c0.7,0.8,1.3,1.6,2,2.4c1.3-2.2,3.1-3.7,5.5-4.2c-0.4,0.9-0.6,1.8-0.7,2.6c-0.2,1.1-0.1,2.9,0.2,5.3c0.5,0.3,1,0.6,1.5,0.9
		c0-0.2,0-0.3,0-0.5c-0.1-1.7-0.1-2.6,0-2.7c0-0.3,0-0.7,0.1-1c0.2-1.8,1.1-3.6,2.7-5.7c-0.8-0.7-1.7-1.4-2.5-2.2
		c-2,0.4-3.4,0.9-4.3,1.5c-0.5,0.3-1.1,0.7-1.6,1c-0.1,0.1-0.3,0.2-0.4,0.3c0.2-1.4,0.3-2.8,0.5-4.2c3.6,0.4,7.2,0.8,10.8,1.3
		c0.4,0.1,0.7,0.1,0.9,0.2c0.5,0.1,0.9,0.3,1.2,0.6c0.2,0.3,0.3,0.5,0.4,0.7c-0.4,0.2-0.7,0.3-0.9,0.4c-1.1,0.5-1.7,1.2-1.9,2
		c0,0.2-0.1,0.4,0,0.5c0.1,1,0.6,1.6,1.6,1.8c0.9,0.2,1.7-0.1,2.4-0.7c0.4,0.8,1,1.2,1.8,1.4c0.4,0.1,0.7,0.1,1.2,0
		c0.4-0.1,0.7-0.3,0.9-0.5c0,0-0.1,0-0.1,0.1c0.2-0.2,0.4-0.6,0.5-1c0.1-0.5,0-1.1-0.3-1.6c-0.1-0.2-0.5-0.6-1.1-1.3
		c0.3-0.3,0.6-0.4,1.1-0.3c0.4,0,0.8,0.5,1.2,1.3c0.4,0.8,0.5,1.4,0.5,1.7c-0.6,2.5-1.3,5-1.9,7.6c0.5,0.8,1.1,1.5,1.6,2.3
		c1-4.2,2.1-8.5,3.1-12.7c0.9,0.2,1.8,0.4,2.7,0.6C125.7,148.8,125.2,148,124.7,147.3z M93.4,155.8c0.2,0,0.3-0.1,0.4-0.1
		c0,0,0,0,0,0c0,0,0.1,0.1,0.1,0.1C93.9,155.8,93.7,155.8,93.4,155.8z"/>
</g>
</svg>
